<svg width="182" height="125" viewBox="0 0 182 125" fill="none" xmlns="http://www.w3.org/2000/svg">
<path d="M6.88715 124C-3.84718 97.1844 -0.600006 67.2418 13.2444 44.2452L158.165 64.2955L19.2848 35.3746C77.817 -37.5584 191.742 10.8172 180.76 102.9L6.88715 124Z" fill="white"/>
<path d="M6.88715 124C-3.84718 97.1844 -0.600006 67.2418 13.2444 44.2452L158.165 64.2955L19.2848 35.3746C77.817 -37.5584 191.742 10.8172 180.76 102.9L6.88715 124Z" fill="#D84773" fill-opacity="0.1"/>
<circle cx="90.041" cy="88.5" r="36.5" fill="#F05668"/>
<path fill-rule="evenodd" clip-rule="evenodd" d="M74.6016 104H104.48C105.618 103.999 106.54 103.083 106.541 101.953V84.0465C106.54 82.9168 105.618 82.0012 104.48 82H74.6016C73.4641 82.0012 72.5422 82.9168 72.541 84.0465V101.953C72.5421 103.083 73.464 103.999 74.6016 104ZM74.6016 101.953V84.0464L104.48 84.0464L104.482 101.953H74.6016Z" fill="white"/>
<path fill-rule="evenodd" clip-rule="evenodd" d="M80.541 84H99.541L99.541 75.5556C99.541 69.4392 95.5456 65 90.041 65C84.5365 65 80.541 69.4392 80.541 75.5556V84ZM97.4301 81.8891H82.6523L82.6524 75.5558C82.6524 70.5839 85.6907 67.1113 90.0412 67.1113C94.3918 67.1113 97.4301 70.5839 97.4301 75.5558V81.8891Z" fill="white"/>
<circle cx="89.541" cy="93" r="2" fill="white"/>
</svg>
