<svg width="88" height="28" viewBox="0 0 88 28" fill="none" xmlns="http://www.w3.org/2000/svg">
<path d="M16.6619 10.4347H13.4744C13.3835 9.91193 13.2159 9.44886 12.9716 9.04545C12.7273 8.63636 12.4233 8.28977 12.0597 8.00568C11.696 7.72159 11.2813 7.50852 10.8153 7.36648C10.3551 7.21875 9.85795 7.14489 9.32386 7.14489C8.375 7.14489 7.53409 7.38352 6.80114 7.86079C6.06818 8.33239 5.49432 9.02557 5.07955 9.94034C4.66477 10.8494 4.45739 11.9602 4.45739 13.2727C4.45739 14.608 4.66477 15.733 5.07955 16.6477C5.5 17.5568 6.07386 18.2443 6.80114 18.7102C7.53409 19.1705 8.37216 19.4006 9.31534 19.4006C9.83807 19.4006 10.3267 19.3324 10.7812 19.196C11.2415 19.054 11.6534 18.8466 12.017 18.5739C12.3864 18.3011 12.696 17.9659 12.946 17.5682C13.2017 17.1705 13.3778 16.7159 13.4744 16.2045L16.6619 16.2216C16.5426 17.0511 16.2841 17.8295 15.8864 18.5568C15.4943 19.2841 14.9801 19.9261 14.3438 20.483C13.7074 21.0341 12.9631 21.4659 12.1108 21.7784C11.2585 22.0852 10.3125 22.2386 9.27273 22.2386C7.73864 22.2386 6.36932 21.8835 5.16477 21.1733C3.96023 20.4631 3.01136 19.4375 2.31818 18.0966C1.625 16.7557 1.27841 15.1477 1.27841 13.2727C1.27841 11.392 1.62784 9.78409 2.3267 8.44886C3.02557 7.10795 3.97727 6.08239 5.18182 5.37216C6.38636 4.66193 7.75 4.30682 9.27273 4.30682C10.2443 4.30682 11.1477 4.44318 11.983 4.71591C12.8182 4.98864 13.5625 5.3892 14.2159 5.91761C14.8693 6.44034 15.4063 7.08239 15.8267 7.84375C16.2528 8.59943 16.5313 9.46307 16.6619 10.4347ZM25.1314 22.2557C23.8246 22.2557 22.7024 21.9688 21.7649 21.3949C20.8331 20.821 20.1143 20.0284 19.6087 19.017C19.1087 18 18.8587 16.8295 18.8587 15.5057C18.8587 14.1761 19.1143 13.0028 19.6257 11.9858C20.1371 10.9631 20.8587 10.1676 21.7905 9.59943C22.728 9.02557 23.8359 8.73864 25.1143 8.73864C26.1768 8.73864 27.1172 8.93466 27.9354 9.3267C28.7592 9.71307 29.4155 10.2614 29.9041 10.9716C30.3928 11.6761 30.6712 12.5 30.7393 13.4432H27.7905C27.6712 12.8125 27.3871 12.2869 26.9382 11.8665C26.495 11.4403 25.9013 11.2273 25.157 11.2273C24.5263 11.2273 23.9723 11.3977 23.495 11.7386C23.0178 12.0739 22.6456 12.5568 22.3786 13.1875C22.1172 13.8182 21.9865 14.5739 21.9865 15.4545C21.9865 16.3466 22.1172 17.1136 22.3786 17.7557C22.6399 18.392 23.0064 18.8835 23.478 19.2301C23.9553 19.571 24.5149 19.7415 25.157 19.7415C25.6115 19.7415 26.0178 19.6562 26.3757 19.4858C26.7393 19.3097 27.0433 19.0568 27.2876 18.7273C27.532 18.3977 27.6996 17.9972 27.7905 17.5256H30.7393C30.6655 18.4517 30.3928 19.2727 29.9212 19.9886C29.4496 20.6989 28.8075 21.2557 27.995 21.6591C27.1825 22.0568 26.228 22.2557 25.1314 22.2557ZM35.1733 22.1875C34.6563 22.1875 34.2131 22.0057 33.8438 21.642C33.4744 21.2784 33.2926 20.8352 33.2983 20.3125C33.2926 19.8011 33.4744 19.3636 33.8438 19C34.2131 18.6364 34.6563 18.4545 35.1733 18.4545C35.6733 18.4545 36.108 18.6364 36.4773 19C36.8523 19.3636 37.0426 19.8011 37.0483 20.3125C37.0426 20.6591 36.9517 20.9744 36.7756 21.2585C36.6051 21.5426 36.3778 21.7699 36.0938 21.9403C35.8153 22.1051 35.5085 22.1875 35.1733 22.1875ZM45.9268 27.1818C44.8189 27.1818 43.8672 27.0313 43.0717 26.7301C42.2763 26.4347 41.6371 26.0369 41.1541 25.5369C40.6712 25.0369 40.3359 24.483 40.1484 23.875L42.9268 23.2017C43.0518 23.4574 43.2337 23.7102 43.4723 23.9602C43.7109 24.2159 44.032 24.4261 44.4354 24.5909C44.8445 24.7614 45.3587 24.8466 45.978 24.8466C46.853 24.8466 47.5774 24.6335 48.1513 24.2074C48.7251 23.7869 49.0121 23.0938 49.0121 22.1278V19.6477H48.8587C48.6996 19.9659 48.4666 20.2926 48.1598 20.6278C47.8587 20.9631 47.4581 21.2443 46.9581 21.4716C46.4638 21.6989 45.8416 21.8125 45.0916 21.8125C44.0859 21.8125 43.174 21.5767 42.3558 21.1051C41.5433 20.6278 40.8956 19.9176 40.4126 18.9744C39.9354 18.0256 39.6967 16.8381 39.6967 15.4119C39.6967 13.9744 39.9354 12.7614 40.4126 11.7727C40.8956 10.7784 41.5462 10.0256 42.3643 9.5142C43.1825 8.99716 44.0945 8.73864 45.1001 8.73864C45.8672 8.73864 46.4979 8.86932 46.9922 9.13068C47.4922 9.38636 47.8899 9.69602 48.1854 10.0597C48.4808 10.4176 48.7053 10.7557 48.8587 11.0739H49.0291V8.90909H52.0717V22.2131C52.0717 23.3324 51.8047 24.2585 51.2706 24.9915C50.7365 25.7244 50.0064 26.2727 49.0803 26.6364C48.1541 27 47.103 27.1818 45.9268 27.1818ZM45.9524 19.392C46.6058 19.392 47.1626 19.233 47.6229 18.9148C48.0831 18.5966 48.4325 18.1392 48.6712 17.5426C48.9098 16.946 49.0291 16.2301 49.0291 15.3949C49.0291 14.571 48.9098 13.8494 48.6712 13.2301C48.4382 12.6108 48.0916 12.1307 47.6314 11.7898C47.1768 11.4432 46.6172 11.2699 45.9524 11.2699C45.2649 11.2699 44.6911 11.4489 44.2308 11.8068C43.7706 12.1648 43.424 12.6562 43.1911 13.2812C42.9581 13.9006 42.8416 14.6051 42.8416 15.3949C42.8416 16.196 42.9581 16.8977 43.1911 17.5C43.4297 18.0966 43.7791 18.5625 44.2393 18.8977C44.7053 19.2273 45.2763 19.392 45.9524 19.392ZM61.0291 22.2557C59.7166 22.2557 58.5831 21.983 57.6286 21.4375C56.6797 20.8864 55.9496 20.108 55.4382 19.1023C54.9268 18.0909 54.6712 16.9006 54.6712 15.5312C54.6712 14.1847 54.9268 13.0028 55.4382 11.9858C55.9553 10.9631 56.6768 10.1676 57.603 9.59943C58.5291 9.02557 59.6172 8.73864 60.8672 8.73864C61.674 8.73864 62.4354 8.86932 63.1513 9.13068C63.8729 9.38636 64.5092 9.78409 65.0604 10.3239C65.6172 10.8636 66.0547 11.5511 66.3729 12.3864C66.6911 13.2159 66.8501 14.2045 66.8501 15.3523V16.2983H56.12V14.2188H63.8928C63.8871 13.6278 63.7592 13.1023 63.5092 12.642C63.2592 12.1761 62.9098 11.8097 62.4609 11.5426C62.0178 11.2756 61.5007 11.142 60.9098 11.142C60.2791 11.142 59.7251 11.2955 59.2479 11.6023C58.7706 11.9034 58.3984 12.3011 58.1314 12.7955C57.87 13.2841 57.7365 13.821 57.7308 14.4062V16.2216C57.7308 16.983 57.87 17.6364 58.1484 18.1818C58.4268 18.7216 58.8161 19.1364 59.3161 19.4261C59.8161 19.7102 60.4013 19.8523 61.0717 19.8523C61.5206 19.8523 61.9268 19.7898 62.2905 19.6648C62.6541 19.5341 62.9695 19.3438 63.2365 19.0938C63.5036 18.8438 63.7053 18.5341 63.8416 18.1648L66.7223 18.4886C66.5405 19.25 66.1939 19.9148 65.6825 20.483C65.1768 21.0455 64.5291 21.483 63.7393 21.7955C62.9496 22.1023 62.0462 22.2557 61.0291 22.2557ZM72.5455 14.3295V22H69.4602V8.90909H72.4091V11.1335H72.5625C72.8636 10.4006 73.3438 9.81818 74.0028 9.38636C74.6676 8.95455 75.4886 8.73864 76.4659 8.73864C77.3693 8.73864 78.1563 8.93182 78.8267 9.31818C79.5028 9.70455 80.0256 10.2642 80.3949 10.9972C80.7699 11.7301 80.9545 12.6193 80.9489 13.6648V22H77.8636V14.142C77.8636 13.267 77.6364 12.5824 77.1818 12.0881C76.733 11.5937 76.1108 11.3466 75.3153 11.3466C74.7756 11.3466 74.2955 11.4659 73.875 11.7045C73.4602 11.9375 73.1335 12.2756 72.8949 12.7188C72.6619 13.1619 72.5455 13.6989 72.5455 14.3295Z" fill="#F79F1A"/>
<circle cx="83" cy="6" r="5" fill="#9B0113"/>
</svg>
