<svg width="16" height="19" viewBox="0 0 16 19" fill="none" xmlns="http://www.w3.org/2000/svg">
<path d="M15.8197 11.8344L14.1538 10.1685V7.96176C14.1519 6.43674 13.5846 4.96659 12.5616 3.8356C11.5386 2.7046 10.1326 1.99311 8.61539 1.83869V0.577148H7.38462V1.83869C5.86743 1.99311 4.46139 2.7046 3.43838 3.8356C2.41537 4.96659 1.84806 6.43674 1.84615 7.96176V10.1685L0.180308 11.8344C0.0648927 11.9498 3.48538e-05 12.1063 0 12.2695V14.1156C0 14.2788 0.064835 14.4353 0.180242 14.5508C0.295649 14.6662 0.452174 14.731 0.615385 14.731H4.92308V15.2091C4.90969 15.9898 5.18486 16.748 5.69587 17.3384C6.20687 17.9288 6.91776 18.3098 7.69231 18.4085C8.12011 18.451 8.55205 18.4034 8.96036 18.2688C9.36867 18.1343 9.7443 17.9158 10.0631 17.6274C10.3819 17.339 10.6368 16.987 10.8114 16.5942C10.986 16.2013 11.0764 15.7763 11.0769 15.3464V14.731H15.3846C15.5478 14.731 15.7044 14.6662 15.8198 14.5508C15.9352 14.4353 16 14.2788 16 14.1156V12.2695C16 12.1063 15.9351 11.9498 15.8197 11.8344ZM9.84615 15.3464C9.84615 15.836 9.65165 16.3056 9.30543 16.6518C8.95921 16.998 8.48963 17.1925 8 17.1925C7.51037 17.1925 7.04079 16.998 6.69457 16.6518C6.34835 16.3056 6.15385 15.836 6.15385 15.3464V14.731H9.84615V15.3464ZM14.7692 13.5002H1.23077V12.5242L2.89662 10.8584C3.01203 10.743 3.07689 10.5865 3.07692 10.4233V7.96176C3.07692 6.65608 3.5956 5.40388 4.51886 4.48062C5.44211 3.55737 6.69432 3.03869 8 3.03869C9.30568 3.03869 10.5579 3.55737 11.4811 4.48062C12.4044 5.40388 12.9231 6.65608 12.9231 7.96176V10.4233C12.9231 10.5865 12.988 10.743 13.1034 10.8584L14.7692 12.5242V13.5002Z" fill="black"/>
</svg>
