<svg width="12" height="20" viewBox="0 0 12 20" fill="none" xmlns="http://www.w3.org/2000/svg">
<path d="M12 2.59711V0.648377C12 0.47947 11.8059 0.386193 11.6748 0.489554L0.310119 9.366C0.213561 9.44109 0.135429 9.53724 0.0816836 9.64712C0.0279385 9.757 0 9.87771 0 10C0 10.1223 0.0279385 10.2431 0.0816836 10.3529C0.135429 10.4628 0.213561 10.559 0.310119 10.6341L11.6748 19.5105C11.8084 19.6139 12 19.5206 12 19.3517V17.4029C12 17.2794 11.942 17.1609 11.8462 17.0853L2.77062 10.0013L11.8462 2.91476C11.942 2.83913 12 2.72064 12 2.59711Z" fill="#031826"/>
</svg>
