<svg width="16" height="17" viewBox="0 0 16 17" fill="none" xmlns="http://www.w3.org/2000/svg">
<path d="M15.7887 10.6482L14.5532 9.59189C14.6116 9.23348 14.6418 8.86753 14.6418 8.50158C14.6418 8.13563 14.6116 7.76968 14.5532 7.41127L15.7887 6.35492C15.8819 6.27514 15.9486 6.16888 15.98 6.05027C16.0113 5.93166 16.0058 5.80632 15.9642 5.69092L15.9472 5.64188C15.607 4.69121 15.0977 3.80993 14.4438 3.04061L14.4098 3.00099C14.3305 2.90772 14.2247 2.84067 14.1066 2.80868C13.9884 2.77669 13.8632 2.78126 13.7477 2.82179L12.2141 3.36695C11.6482 2.9029 11.0163 2.53695 10.3334 2.28041L10.0373 0.677015C10.0149 0.556368 9.95639 0.445376 9.86946 0.358784C9.78253 0.272192 9.67131 0.214099 9.55058 0.192224L9.49965 0.182792C8.51686 0.00547554 7.48314 0.00547554 6.50035 0.182792L6.44942 0.192224C6.32869 0.214099 6.21747 0.272192 6.13054 0.358784C6.04361 0.445376 5.98509 0.556368 5.96275 0.677015L5.6647 2.28796C4.98729 2.54455 4.35646 2.91031 3.79722 3.37072L2.2523 2.82179C2.13679 2.78094 2.01159 2.7762 1.89332 2.80821C1.77506 2.84022 1.66933 2.90746 1.59019 3.00099L1.55624 3.04061C0.903085 3.81047 0.393828 4.69161 0.0528215 5.64188L0.0358444 5.69092C-0.0490412 5.92672 0.0207537 6.19081 0.211275 6.35492L1.46192 7.42259C1.40345 7.77722 1.37515 8.1394 1.37515 8.49969C1.37515 8.86187 1.40345 9.22405 1.46192 9.5768L0.211275 10.6445C0.118081 10.7243 0.0513812 10.8305 0.0200443 10.9491C-0.0112926 11.0677 -0.00578165 11.1931 0.0358444 11.3085L0.0528215 11.3575C0.39425 12.3082 0.899791 13.1854 1.55624 13.9588L1.59019 13.9984C1.66952 14.0917 1.77525 14.1587 1.89345 14.1907C2.01164 14.2227 2.13676 14.2181 2.2523 14.1776L3.79722 13.6287C4.35935 14.0908 4.9875 14.4568 5.6647 14.7114L5.96275 16.3224C5.98509 16.443 6.04361 16.554 6.13054 16.6406C6.21747 16.7272 6.32869 16.7853 6.44942 16.8072L6.50035 16.8166C7.49217 16.9949 8.50783 16.9949 9.49965 16.8166L9.55058 16.8072C9.67131 16.7853 9.78253 16.7272 9.86946 16.6406C9.95639 16.554 10.0149 16.443 10.0373 16.3224L10.3334 14.719C11.016 14.4631 11.6515 14.096 12.2141 13.6324L13.7477 14.1776C13.8632 14.2185 13.9884 14.2232 14.1067 14.1912C14.2249 14.1592 14.3307 14.0919 14.4098 13.9984L14.4438 13.9588C15.1002 13.1835 15.6058 12.3082 15.9472 11.3575L15.9642 11.3085C16.049 11.0764 15.9792 10.8124 15.7887 10.6482ZM13.2139 7.63386C13.261 7.9187 13.2855 8.21108 13.2855 8.50347C13.2855 8.79585 13.261 9.08823 13.2139 9.37307L13.0894 10.1295L14.4985 11.3349C14.2848 11.827 14.0152 12.2929 13.6949 12.7232L11.9444 12.1026L11.352 12.5893C10.9012 12.959 10.3994 13.2495 9.85616 13.4532L9.13747 13.723L8.79981 15.5527C8.26705 15.6131 7.72918 15.6131 7.19642 15.5527L6.85876 13.7192L6.14572 13.4457C5.60811 13.242 5.10823 12.9515 4.66117 12.5836L4.06885 12.0951L2.30701 12.7213C1.98633 12.2894 1.71847 11.8234 1.50342 11.333L2.92761 10.1163L2.805 9.36176C2.75973 9.08069 2.73521 8.79019 2.73521 8.50347C2.73521 8.21486 2.75784 7.92625 2.805 7.64518L2.92761 6.89064L1.50342 5.67395C1.71658 5.18161 1.98633 4.71757 2.30701 4.2856L4.06885 4.91186L4.66117 4.4233C5.10823 4.05546 5.60811 3.76496 6.14572 3.56124L6.86065 3.29149L7.1983 1.45796C7.72837 1.3976 8.26975 1.3976 8.8017 1.45796L9.13935 3.28772L9.85805 3.55747C10.3994 3.76119 10.9031 4.05169 11.3539 4.42141L11.9462 4.90809L13.6968 4.28748C14.0174 4.71946 14.2853 5.18538 14.5004 5.67583L13.0912 6.88121L13.2139 7.63386ZM8.00189 4.99486C6.16836 4.99486 4.68192 6.4813 4.68192 8.31483C4.68192 10.1484 6.16836 11.6348 8.00189 11.6348C9.83542 11.6348 11.3219 10.1484 11.3219 8.31483C11.3219 6.4813 9.83542 4.99486 8.00189 4.99486ZM9.49587 9.80882C9.29992 10.0053 9.06705 10.1612 8.81066 10.2673C8.55426 10.3735 8.2794 10.428 8.00189 10.4275C7.43787 10.4275 6.90781 10.2068 6.5079 9.80882C6.31139 9.61287 6.15556 9.38 6.04937 9.1236C5.94319 8.86721 5.88875 8.59235 5.88918 8.31483C5.88918 7.75082 6.10988 7.22075 6.5079 6.82085C6.90781 6.42094 7.43787 6.20212 8.00189 6.20212C8.5659 6.20212 9.09597 6.42094 9.49587 6.82085C9.69239 7.0168 9.84822 7.24967 9.9544 7.50606C10.0606 7.76246 10.115 8.03732 10.1146 8.31483C10.1146 8.87885 9.89389 9.40892 9.49587 9.80882Z" fill="black"/>
</svg>
