<svg width="12" height="20" viewBox="0 0 12 20" fill="none" xmlns="http://www.w3.org/2000/svg">
<path d="M0 2.59711V0.648377C0 0.47947 0.194118 0.386193 0.32521 0.489554L11.6899 9.366C11.7864 9.44109 11.8646 9.53724 11.9183 9.64712C11.9721 9.757 12 9.87771 12 10C12 10.1223 11.9721 10.2431 11.9183 10.3529C11.8646 10.4628 11.7864 10.559 11.6899 10.6341L0.32521 19.5105C0.191597 19.6139 0 19.5206 0 19.3517V17.4029C0 17.2794 0.0579824 17.1609 0.153781 17.0853L9.22938 10.0013L0.153781 2.91476C0.0579824 2.83913 0 2.72064 0 2.59711Z" fill="#B1B7BC"/>
</svg>
